#!OML:ASF H:\charlestonDancing\Project 1\Capture day 1\Session 1\femaleDancer.ASF
:FULLY-SPECIFIED
:DEGREES
127
root -10.2504 17.7176 2.25023 62.9809 -85.9789 -56.9323
lowerback 29.5826 1.30546 11.7018
upperback 8.41516 4.43241 3.65953
thorax -6.01356 1.72593 -4.01304
lowerneck -0.252982 0.407419 2.99533
upperneck -14.5061 -0.901535 -9.88582
head -4.31036 -0.250808 -3.50776
rclavicle -2.38542e-014 6.36111e-015
rhumerus 29.3944 1.33598 -61.42
rradius 51.052
rwrist 28.4389
rhand -29.7712 -42.2375
rfingers 7.12502
rthumb -3.09649 -72.1947
lclavicle -2.38542e-014 6.36111e-015
lhumerus -79.7174 14.1878 47.9845
lradius 14.3992
lwrist -45.7913
lhand -14.332 0.73601
lfingers 7.12502
lthumb 11.8089 30.3831
rfemur -22.5151 -6.16926 27.5581
rtibia 38.8879
rfoot -17.5712 6.36889
rtoes -15.5423
lfemur -48.8321 -6.61794 -16.7504
ltibia 55.5264
lfoot 0.572347 -4.42322
ltoes -17.4166
128
root -10.3572 17.7748 2.27677 69.2739 -86.4713 -62.7836
lowerback 29.1095 1.3744 11.272
upperback 8.09605 4.39148 3.3423
thorax -6.17823 1.7134 -4.10661
lowerneck -0.0983229 0.441934 2.91214
upperneck -14.3073 -0.766732 -9.41885
head -4.26874 -0.196391 -3.35055
rclavicle 3.18055e-014 2.70347e-014
rhumerus 25.9483 2.84336 -62.6335
rradius 51.6241
rwrist 28.9382
rhand -30.6707 -41.362
rfingers 7.12502
rthumb -3.96518 -71.3048
lclavicle 3.18055e-014 2.70347e-014
lhumerus -77.2063 13.1403 55.9165
lradius 16.7705
lwrist -37.4663
lhand -14.5939 0.610529
lfingers 7.12502
lthumb 11.5564 30.2719
rfemur -22.4158 -5.91041 27.1431
rtibia 38.5519
rfoot -17.3966 6.73687
rtoes -17.8083
lfemur -47.4686 -5.19513 -17.7161
ltibia 55.5329
lfoot 0.353305 -4.08927
ltoes -17.9791
129
root -10.4642 17.8403 2.30354 77.6455 -87.1168 -70.6026
lowerback 28.5242 1.49824 10.6648
upperback 7.80879 4.35072 2.94576
thorax -6.25879 1.71029 -4.18194
lowerneck 0.0633062 0.454193 2.80542
upperneck -14.2763 -0.688624 -8.98828
head -4.28315 -0.166497 -3.20118
rclavicle 4.77083e-014 3.18055e-015
rhumerus 22.3573 4.10706 -64.1926
rradius 51.9095
rwrist 29.6037
rhand -30.5794 -41.8531
rfingers 7.12502
rthumb -3.87695 -71.7976
lclavicle 4.77083e-014 3.18055e-015
lhumerus -74.7408 12.4269 61.6034
lradius 19.3873
lwrist -30.8994
lhand -15.1723 0.408029
lfingers 7.12502
lthumb 10.9985 30.0999
rfemur -22.4352 -5.5336 26.5348
rtibia 38.1353
rfoot -17.1546 6.89055
rtoes -20.424
lfemur -46.2048 -3.8953 -18.7967
ltibia 55.123
lfoot -0.026744 -3.85272
ltoes -20.3916
130
root -10.5704 17.9057 2.32956 87.5464 -87.7147 -79.9203
lowerback 27.8487 1.55948 10.0397
upperback 7.5976 4.20521 2.52096
thorax -6.21692 1.66513 -4.23726
lowerneck 0.119534 0.479675 2.67135
upperneck -14.3519 -0.612929 -8.59002
head -4.31237 -0.138607 -3.05834
rclavicle -1.43125e-014 -1.11319e-014
rhumerus 18.7548 5.38886 -65.8543
rradius 51.7066
rwrist 29.2025
rhand -30.6077 -40.838
rfingers 7.12502
rthumb -3.90433 -70.782
lclavicle -1.43125e-014 -1.11319e-014
lhumerus -72.111 11.6026 66.4937
lradius 22.5037
lwrist -24.6209
lhand -16.0146 0.933953
lfingers 7.12502
lthumb 10.1861 30.6674
rfemur -22.5173 -5.16229 25.8885
rtibia 37.7124
rfoot -16.7787 7.00182
rtoes -21.4019
lfemur -45.0281 -2.80418 -19.8529
ltibia 54.3624
lfoot -0.258968 -3.90449
ltoes -22.2276
131
root -10.6753 17.9595 2.35376 102.684 -88.0032 -94.5737
lowerback 27.2814 1.58621 9.57573
upperback 7.42323 4.06855 2.13282
thorax -6.16777 1.61956 -4.34655
lowerneck 0.140615 0.498013 2.58106
upperneck -14.436 -0.552012 -8.23056
head -4.33916 -0.119964 -2.93454
rclavicle -1.11319e-014 -1.59028e-015
rhumerus 15.1263 6.48711 -67.5843
rradius 51.1233
rwrist 29.2551
rhand -29.7047 -40.4
rfingers 7.12502
rthumb -3.03226 -70.3582
lclavicle -1.11319e-014 -1.59028e-015
lhumerus -69.4304 10.8619 70.1076
lradius 25.7693
lwrist -19.7981
lhand -17.2289 1.84589
lfingers 7.12502
lthumb 9.0145 31.6333
rfemur -22.5447 -4.63015 25.4898
rtibia 37.389
rfoot -16.4018 6.81428
rtoes -22.3813
lfemur -43.8481 -1.74013 -20.6217
ltibia 53.354
lfoot -0.336316 -4.26288
ltoes -23.0125
132
root -10.781 18.0003 2.38026 114.848 -87.9702 -106.319
lowerback 26.6767 1.53799 9.3564
upperback 7.28455 3.89764 1.81621
thorax -6.04563 1.55778 -4.49993
lowerneck 0.331529 0.498331 2.4599
upperneck -14.7037 -0.531722 -7.87971
head -4.45296 -0.114275 -2.80915
rclavicle 5.40694e-014 2.22639e-014
rhumerus 11.5137 7.57622 -69.3393
rradius 49.8272
rwrist 28.6454
rhand -30.1714 -38.297
rfingers 7.12502
rthumb -3.483 -68.2483
lclavicle 5.40694e-014 2.22639e-014
lhumerus -66.6007 10.3435 72.5789
lradius 28.8378
lwrist -16.6996
lhand -18.6975 2.89771
lfingers 7.12502
lthumb 7.59713 32.7413
rfemur -22.6006 -4.17234 25.3542
rtibia 37.2949
rfoot -16.246 6.37446
rtoes -23.2596
lfemur -42.7238 -0.95845 -21.0496
ltibia 52.2284
lfoot -0.133371 -4.66383
ltoes -22.7091
133
root -10.888 18.0236 2.40632 122.537 -88.1163 -113.595
lowerback 25.9347 1.42838 9.02021
upperback 7.15415 3.61059 1.49504
thorax -5.87001 1.4452 -4.55316
lowerneck 0.753797 0.468585 2.36206
upperneck -15.1553 -0.577974 -7.63754
head -4.66556 -0.131245 -2.72129
rclavicle -1.43125e-014 1.43125e-014
rhumerus 7.83675 8.32575 -71.2193
rradius 48.0788
rwrist 28.4449
rhand -29.5786 -38.9713
rfingers 7.12502
rthumb -2.91054 -68.9311
lclavicle -1.43125e-014 1.43125e-014
lhumerus -63.6669 9.57047 74.7106
lradius 31.9379
lwrist -14.4756
lhand -20.2981 4.22636
lfingers 7.12502
lthumb 6.05207 34.1199
rfemur -22.809 -3.91063 25.0506
rtibia 37.5503
rfoot -16.5071 5.82234
rtoes -23.4267
lfemur -41.6762 -0.569656 -21.5958
ltibia 51.0762
lfoot 0.534028 -5.07559
ltoes -21.1114
134
root -10.9939 18.0134 2.42847 139.53 -88.4284 -130.218
lowerback 25.1641 1.3872 8.33665
upperback 7.0502 3.32168 1.08858
thorax -5.6679 1.33476 -4.50292
lowerneck 1.05025 0.442829 2.44034
upperneck -15.3996 -0.612252 -7.54513
head -4.79253 -0.148728 -2.70753
rclavicle -1.59028e-015 -3.73715e-014
rhumerus 4.14208 8.73673 -73.1478
rradius 46.0109
rwrist 28.0984
rhand -29.5288 -38.4105
rfingers 7.12502
rthumb -2.86244 -68.3711
lclavicle -1.59028e-015 -3.73715e-014
lhumerus -60.7617 8.45446 76.4822
lradius 35.25
lwrist -13.0001
lhand -21.8653 5.70069
lfingers 7.12502
lthumb 4.53882 35.6321
rfemur -23.2388 -3.50495 24.4113
rtibia 38.3447
rfoot -17.1165 5.20164
rtoes -23.1142
lfemur -40.6637 -0.19213 -22.4733
ltibia 50.0121
lfoot 1.63592 -5.39158
ltoes -19.7035
135
root -11.0985 17.9803 2.45363 164.764 -88.5999 -155.193
lowerback 24.3628 1.3603 7.58265
upperback 7.02194 3.03258 0.681946
thorax -5.36479 1.22601 -4.40968
lowerneck 1.37152 0.526871 2.33675
upperneck -15.6993 -0.473299 -7.21915
head -4.93292 -0.0823421 -2.59862
rclavicle 2.8625e-014 5.56597e-015
rhumerus 0.554071 8.84361 -74.9509
rradius 43.66
rwrist 27.7535
rhand -29.3774 -37.7185
rfingers 7.12502
rthumb -2.71622 -67.681
lclavicle 2.8625e-014 5.56597e-015
lhumerus -57.8266 7.31797 77.7759
lradius 38.6903
lwrist -12.1104
lhand -23.2149 6.98668
lfingers 7.12502
lthumb 3.23559 36.9419
rfemur -23.8198 -3.21982 23.6575
rtibia 39.7638
rfoot -17.8721 4.68367
rtoes -22.6964
lfemur -39.5449 0.0985951 -23.4221
ltibia 49.001
lfoot 2.96571 -5.42528
ltoes -19.1135
136
root -11.2028 17.9179 2.48663 188.408 -88.5 -178.779
lowerback 23.6468 1.32014 6.91162
upperback 7.04891 2.75945 0.333168
thorax -5.03329 1.12016 -4.30743
lowerneck 1.41999 0.50703 2.16642
upperneck -15.6376 -0.459148 -6.89952
head -4.92275 -0.0826631 -2.47023
rclavicle 3.02153e-014 7.95139e-016
rhumerus -3.00477 8.6122 -76.5835
rradius 41.073
rwrist 27.5946
rhand -29.2343 -36.9993
rfingers 7.12502
rthumb -2.57796 -66.9634
lclavicle 3.02153e-014 7.95139e-016
lhumerus -54.705 6.20338 78.7783
lradius 42.0071
lwrist -11.7585
lhand -24.1993 8.27868
lfingers 7.12502
lthumb 2.2849 38.2462
rfemur -24.5482 -3.27264 22.9524
rtibia 41.9744
rfoot -18.6806 4.22687
rtoes -23.5069
lfemur -38.1998 0.180398 -24.2678
ltibia 48.0195
lfoot 4.32192 -5.17265
ltoes -17.0083
